<svg xmlns="http://www.w3.org/2000/svg" width="1600" height="900" viewBox="0 0 1600 900" fill="none">
  <defs>
    <linearGradient id="g" x1="0" y1="0" x2="1" y2="1">
      <stop offset="0%" stop-color="#1a2340"/>
      <stop offset="45%" stop-color="#3B498F"/>
      <stop offset="100%" stop-color="#5a68a8"/>
    </linearGradient>
    <linearGradient id="glow" x1="0.5" y1="1" x2="0.5" y2="0">
      <stop offset="0%" stop-color="#ffffff" stop-opacity="0.18"/>
      <stop offset="100%" stop-color="#ffffff" stop-opacity="0"/>
    </linearGradient>
  </defs>
  <rect width="1600" height="900" fill="url(#g)"/>
  <rect width="1600" height="900" fill="url(#glow)"/>
  <g opacity="0.55" stroke="#ffffff" stroke-width="3" fill="none">
    <path d="M80 720 H520 V380 H80 Z"/>
    <path d="M560 720 H980 V260 H560 Z"/>
    <path d="M1020 720 H1520 V420 H1020 Z"/>
    <path d="M180 380 V220 H320 V380"/>
    <path d="M680 260 V140 H820 V260"/>
    <path d="M1180 420 V280 H1380 V420"/>
  </g>
  <g opacity="0.35" fill="#fff">
    <rect x="120" y="480" width="80" height="12" rx="2"/>
    <rect x="120" y="520" width="120" height="12" rx="2"/>
    <rect x="620" y="360" width="90" height="12" rx="2"/>
    <rect x="620" y="400" width="140" height="12" rx="2"/>
    <rect x="1100" y="500" width="100" height="12" rx="2"/>
    <rect x="1100" y="540" width="160" height="12" rx="2"/>
  </g>
  <g opacity="0.45" fill="#fff">
    <circle cx="240" cy="160" r="4"/>
    <circle cx="760" cy="120" r="4"/>
    <circle cx="1280" cy="180" r="4"/>
    <circle cx="400" cy="300" r="3"/>
    <circle cx="900" cy="220" r="3"/>
  </g>
</svg>
